<svg viewBox="575 257.9638 380 202.4935" width="5000" height="2664.3881578947367" xmlns="http://www.w3.org/2000/svg" xmlns:xlink="http://www.w3.org/1999/xlink" preserveAspectRatio="none"><defs></defs><style>.aIptOCySncolors-0 {fill:#161616;fill-opacity:1;}.aIptOCySncolors-1 {fill:#46C211;fill-opacity:1;}.aIptOCySncolors-3 {fill:#000000;fill-opacity:1;}.aIptOCySncolors-4 {fill:#161616;fill-opacity:1;}.aIptOCySncolors-5 {fill:#2F2E2E;fill-opacity:1;}.aIptOCySncolors-6 {fill:#B4B4B4;fill-opacity:1;}.aIptOCySncolors-7 {fill:#808080;fill-opacity:1;}.atgh7KN1KN0filter-floo {flood-color:#A0A0A0;flood-opacity:0.5;}.companyName {fill:#F9F9F9;fill-opacity:1;}.icon3 {fill:#6B6B6B;fill-opacity:1;}.icon3-str {stroke:#6B6B6B;stroke-opacity:1;}</style><defs>
      <filter
        x="714.8978"
        y="257.9638"
        width="100.2044"
        height="115.6204"
        id="tgh7KN1KN"
        filterUnits="userSpaceOnUse"
        primitiveUnits="userSpaceOnUse"
        color-interpolation-filters="sRGB">
        <feMerge><feMergeNode in="SourceGraphic" /></feMerge>
      </filter></defs><g opacity="1" transform="rotate(0 714.8978 257.9638)">
<svg width="100.2044" height="115.6204" x="714.8978" y="257.9638" version="1.1" preserveAspectRatio="none" viewBox="35 25 130 150">
  <g transform="matrix(1 0 0 1 0 0)"><g><path d="M131.7 43.3L100 25 35 62.6v74.8l65 37.6 37.3-21.5 27.7-16.1V62.6l-33.3-19.3z" data-color="1" class="aIptOCySncolors-0"></path><path opacity=".2" d="M35.2 62.4l-.2.2v31.9l65 37.4-64.8-69.5z" data-color="2" class="aIptOCySncolors-1"></path><path d="M137.3 153.5l27.7-16.1V62.6l-65 69.3 37.3 21.6z" data-color="2" class="aIptOCySncolors-1"></path><path opacity=".75" d="M100 131.9l65-69.3-33.3-19.3-31.7 88.6z" data-color="2" class="aIptOCySncolors-1"></path><path opacity=".3" d="M100 131.9L67.9 43.5 35.2 62.4l64.8 69.5z" data-color="2" class="aIptOCySncolors-1"></path><path opacity=".6" d="M100 131.9l31.7-88.6L100 25v106.9z" data-color="2" class="aIptOCySncolors-1"></path><path opacity=".4" d="M100 25L68 43.5l32 88.4V25z" data-color="2" class="aIptOCySncolors-1"></path></g></g>
</svg>
</g><g opacity="1" transform="rotate(0 575 441.121)">
<svg width="380" height="19.3363" x="575" y="441.121" version="1.1" preserveAspectRatio="none" viewBox="2.5391 -30 752.9406000000001 38.32040000000001">
  <g transform="matrix(1 0 0 1 0 0)" class="companyName"><path id="id-6izo4zJp37" d="M13.54-10.02L8.40-10.02L8.40 0L2.54 0L2.54-28.44L13.63-28.44Q16.84-28.44 19.27-27.27Q21.70-26.09 23.01-23.94Q24.32-21.78 24.32-19.02L24.32-19.02Q24.32-14.84 21.46-12.43Q18.59-10.02 13.54-10.02L13.54-10.02ZM8.40-23.69L8.40-14.77L13.63-14.77Q15.96-14.77 17.18-15.86Q18.40-16.95 18.40-18.98L18.40-18.98Q18.40-21.07 17.17-22.36Q15.94-23.65 13.77-23.69L13.77-23.69L8.40-23.69Z M40.72-21.27L40.64-15.84Q39.49-16.00 38.61-16.00L38.61-16.00Q35.41-16.00 34.41-13.83L34.41-13.83L34.41 0L28.77 0L28.77-21.13L34.10-21.13L34.26-18.61Q35.96-21.52 38.96-21.52L38.96-21.52Q39.90-21.52 40.72-21.27L40.72-21.27Z M42.58-10.51L42.58-10.76Q42.58-13.91 43.79-16.37Q45.00-18.83 47.27-20.18Q49.55-21.52 52.56-21.52L52.56-21.52Q56.83-21.52 59.54-18.91Q62.24-16.29 62.56-11.80L62.56-11.80L62.60-10.35Q62.60-5.49 59.88-2.55Q57.17 0.39 52.60 0.39Q48.03 0.39 45.30-2.54Q42.58-5.47 42.58-10.51L42.58-10.51ZM48.22-10.35L48.22-10.35Q48.22-7.34 49.35-5.75Q50.49-4.16 52.60-4.16L52.60-4.16Q54.65-4.16 55.80-5.73Q56.95-7.30 56.95-10.76L56.95-10.76Q56.95-13.71 55.80-15.33Q54.65-16.95 52.56-16.95L52.56-16.95Q50.49-16.95 49.35-15.34Q48.22-13.73 48.22-10.35Z M66.05-10.49L66.05-10.72Q66.05-15.59 68.37-18.55Q70.68-21.52 74.61-21.52L74.61-21.52Q78.08-21.52 80.02-19.14L80.02-19.14L80.25-21.13L85.37-21.13L85.37-0.70Q85.37 2.07 84.11 4.12Q82.85 6.17 80.56 7.25Q78.28 8.32 75.21 8.32L75.21 8.32Q72.89 8.32 70.68 7.39Q68.47 6.46 67.34 5L67.34 5L69.84 1.56Q71.95 3.93 74.96 3.93L74.96 3.93Q77.20 3.93 78.45 2.72Q79.70 1.52 79.70-0.68L79.70-0.68L79.70-1.82Q77.75 0.39 74.57 0.39L74.57 0.39Q70.76 0.39 68.41-2.59Q66.05-5.57 66.05-10.49L66.05-10.49ZM71.70-10.31L71.70-10.31Q71.70-7.44 72.85-5.81Q74.00-4.18 76.01-4.18L76.01-4.18Q78.59-4.18 79.70-6.11L79.70-6.11L79.70-15Q78.57-16.93 76.05-16.93L76.05-16.93Q74.02-16.93 72.86-15.27Q71.70-13.61 71.70-10.31Z M102.46-21.27L102.38-15.84Q101.23-16.00 100.35-16.00L100.35-16.00Q97.15-16.00 96.15-13.83L96.15-13.83L96.15 0L90.50 0L90.50-21.13L95.84-21.13L95.99-18.61Q97.69-21.52 100.70-21.52L100.70-21.52Q101.64-21.52 102.46-21.27L102.46-21.27Z M123.26 0L117.55 0Q117.16-0.76 116.99-1.89L116.99-1.89Q114.94 0.39 111.66 0.39L111.66 0.39Q108.55 0.39 106.51-1.41Q104.47-3.20 104.47-5.94L104.47-5.94Q104.47-9.30 106.96-11.09Q109.45-12.89 114.16-12.91L114.16-12.91L116.75-12.91L116.75-14.12Q116.75-15.59 116.00-16.46Q115.25-17.34 113.63-17.34L113.63-17.34Q112.20-17.34 111.39-16.66Q110.58-15.98 110.58-14.79L110.58-14.79L104.94-14.79Q104.94-16.62 106.07-18.18Q107.20-19.75 109.27-20.63Q111.34-21.52 113.92-21.52L113.92-21.52Q117.83-21.52 120.12-19.56Q122.42-17.60 122.42-14.04L122.42-14.04L122.42-4.88Q122.44-1.88 123.26-0.33L123.26-0.33L123.26 0ZM112.89-3.93L112.89-3.93Q114.14-3.93 115.19-4.48Q116.25-5.04 116.75-5.98L116.75-5.98L116.75-9.61L114.64-9.61Q110.41-9.61 110.13-6.68L110.13-6.68L110.11-6.35Q110.11-5.29 110.86-4.61Q111.60-3.93 112.89-3.93Z M127.55-21.13L132.85-21.13L133.02-18.77Q135.27-21.52 139.10-21.52L139.10-21.52Q143.18-21.52 144.70-18.30L144.70-18.30Q146.93-21.52 151.05-21.52L151.05-21.52Q154.49-21.52 156.17-19.52Q157.85-17.52 157.85-13.50L157.85-13.50L157.85 0L152.18 0L152.18-13.48Q152.18-15.27 151.48-16.10Q150.78-16.93 149.00-16.93L149.00-16.93Q146.46-16.93 145.48-14.51L145.48-14.51L145.50 0L139.86 0L139.86-13.46Q139.86-15.29 139.14-16.11Q138.41-16.93 136.67-16.93L136.67-16.93Q134.27-16.93 133.20-14.94L133.20-14.94L133.20 0L127.55 0L127.55-21.13Z M162.98-21.13L168.28-21.13L168.45-18.77Q170.70-21.52 174.53-21.52L174.53-21.52Q178.61-21.52 180.13-18.30L180.13-18.30Q182.36-21.52 186.48-21.52L186.48-21.52Q189.92-21.52 191.60-19.52Q193.28-17.52 193.28-13.50L193.28-13.50L193.28 0L187.61 0L187.61-13.48Q187.61-15.27 186.91-16.10Q186.21-16.93 184.43-16.93L184.43-16.93Q181.89-16.93 180.91-14.51L180.91-14.51L180.93 0L175.29 0L175.29-13.46Q175.29-15.29 174.56-16.11Q173.84-16.93 172.10-16.93L172.10-16.93Q169.70-16.93 168.63-14.94L168.63-14.94L168.63 0L162.98 0L162.98-21.13Z M204.37-21.13L204.37 0L198.70 0L198.70-21.13L204.37-21.13ZM198.37-26.60L198.37-26.60Q198.37-27.87 199.22-28.69Q200.07-29.51 201.54-29.51L201.54-29.51Q202.98-29.51 203.84-28.69Q204.70-27.87 204.70-26.60L204.70-26.60Q204.70-25.31 203.83-24.49Q202.96-23.67 201.54-23.67Q200.11-23.67 199.24-24.49Q198.37-25.31 198.37-26.60Z M209.70-21.13L215.01-21.13L215.19-18.69Q217.45-21.52 221.26-21.52L221.26-21.52Q224.62-21.52 226.26-19.55Q227.90-17.58 227.94-13.65L227.94-13.65L227.94 0L222.30 0L222.30-13.52Q222.30-15.31 221.52-16.12Q220.74-16.93 218.92-16.93L218.92-16.93Q216.54-16.93 215.34-14.90L215.34-14.90L215.34 0L209.70 0L209.70-21.13Z M232.20-10.49L232.20-10.72Q232.20-15.59 234.51-18.55Q236.83-21.52 240.75-21.52L240.75-21.52Q244.23-21.52 246.16-19.14L246.16-19.14L246.40-21.13L251.52-21.13L251.52-0.70Q251.52 2.07 250.26 4.12Q249.00 6.17 246.71 7.25Q244.43 8.32 241.36 8.32L241.36 8.32Q239.04 8.32 236.83 7.39Q234.62 6.46 233.49 5L233.49 5L235.99 1.56Q238.10 3.93 241.11 3.93L241.11 3.93Q243.35 3.93 244.60 2.72Q245.85 1.52 245.85-0.68L245.85-0.68L245.85-1.82Q243.90 0.39 240.71 0.39L240.71 0.39Q236.91 0.39 234.55-2.59Q232.20-5.57 232.20-10.49L232.20-10.49ZM237.84-10.31L237.84-10.31Q237.84-7.44 239.00-5.81Q240.15-4.18 242.16-4.18L242.16-4.18Q244.74-4.18 245.85-6.11L245.85-6.11L245.85-15Q244.72-16.93 242.20-16.93L242.20-16.93Q240.17-16.93 239.01-15.27Q237.84-13.61 237.84-10.31Z M258.12 7.13L258.12 7.13L255.17 5.59L255.87 4.32Q257.18 1.93 257.22-0.43L257.22-0.43L257.22-4.80L261.98-4.80L261.96-0.90Q261.94 1.27 260.87 3.48Q259.80 5.68 258.12 7.13Z M278.35-28.44L286.01-28.44L293.31-7.81L300.58-28.44L308.27-28.44L308.27 0L302.39 0L302.39-7.77L302.98-21.19L295.30 0L291.28 0L283.62-21.17L284.21-7.77L284.21 0L278.35 0L278.35-28.44Z M331.77 0L326.06 0Q325.67-0.76 325.50-1.89L325.50-1.89Q323.45 0.39 320.16 0.39L320.16 0.39Q317.06 0.39 315.02-1.41Q312.98-3.20 312.98-5.94L312.98-5.94Q312.98-9.30 315.47-11.09Q317.96-12.89 322.66-12.91L322.66-12.91L325.26-12.91L325.26-14.12Q325.26-15.59 324.51-16.46Q323.76-17.34 322.14-17.34L322.14-17.34Q320.71-17.34 319.90-16.66Q319.09-15.98 319.09-14.79L319.09-14.79L313.45-14.79Q313.45-16.62 314.58-18.18Q315.71-19.75 317.78-20.63Q319.85-21.52 322.43-21.52L322.43-21.52Q326.34-21.52 328.63-19.56Q330.93-17.60 330.93-14.04L330.93-14.04L330.93-4.88Q330.95-1.88 331.77-0.33L331.77-0.33L331.77 0ZM321.40-3.93L321.40-3.93Q322.65-3.93 323.70-4.48Q324.75-5.04 325.26-5.98L325.26-5.98L325.26-9.61L323.15-9.61Q318.91-9.61 318.64-6.68L318.64-6.68L318.62-6.35Q318.62-5.29 319.36-4.61Q320.11-3.93 321.40-3.93Z M348.02-21.27L347.94-15.84Q346.79-16.00 345.91-16.00L345.91-16.00Q342.70-16.00 341.71-13.83L341.71-13.83L341.71 0L336.06 0L336.06-21.13L341.39-21.13L341.55-18.61Q343.25-21.52 346.26-21.52L346.26-21.52Q347.20-21.52 348.02-21.27L348.02-21.27Z M364.56 0L359.13-8.48L357.10-6.45L357.10 0L351.45 0L351.45-30L357.10-30L357.10-13.38L358.19-14.79L363.60-21.13L370.38-21.13L362.74-12.32L371.04 0L364.56 0Z M382.96 0.39L382.96 0.39Q378.31 0.39 375.39-2.46Q372.47-5.31 372.47-10.06L372.47-10.06L372.47-10.61Q372.47-13.79 373.70-16.30Q374.93-18.81 377.18-20.17Q379.44-21.52 382.33-21.52L382.33-21.52Q386.67-21.52 389.16-18.79Q391.65-16.05 391.65-11.04L391.65-11.04L391.65-8.73L378.19-8.73Q378.46-6.66 379.84-5.41Q381.22-4.16 383.33-4.16L383.33-4.16Q386.59-4.16 388.42-6.52L388.42-6.52L391.20-3.42Q389.93-1.62 387.76-0.62Q385.59 0.39 382.96 0.39ZM382.31-16.95L382.31-16.95Q380.63-16.95 379.59-15.82Q378.54-14.69 378.25-12.58L378.25-12.58L386.10-12.58L386.10-13.03Q386.06-14.90 385.08-15.93Q384.11-16.95 382.31-16.95Z M396.76-26.33L402.41-26.33L402.41-21.13L406.02-21.13L406.02-16.99L402.41-16.99L402.41-6.45Q402.41-5.27 402.86-4.77Q403.31-4.26 404.58-4.26L404.58-4.26Q405.51-4.26 406.24-4.39L406.24-4.39L406.24-0.12Q404.58 0.39 402.82 0.39L402.82 0.39Q396.88 0.39 396.76-5.61L396.76-5.61L396.76-16.99L393.68-16.99L393.68-21.13L396.76-21.13L396.76-26.33Z M415.92-21.13L415.92 0L410.26 0L410.26-21.13L415.92-21.13ZM409.93-26.60L409.93-26.60Q409.93-27.87 410.78-28.69Q411.63-29.51 413.09-29.51L413.09-29.51Q414.54-29.51 415.40-28.69Q416.25-27.87 416.25-26.60L416.25-26.60Q416.25-25.31 415.39-24.49Q414.52-23.67 413.09-23.67Q411.66-23.67 410.80-24.49Q409.93-25.31 409.93-26.60Z M421.25-21.13L426.57-21.13L426.74-18.69Q429.01-21.52 432.82-21.52L432.82-21.52Q436.18-21.52 437.82-19.55Q439.46-17.58 439.50-13.65L439.50-13.65L439.50 0L433.85 0L433.85-13.52Q433.85-15.31 433.07-16.12Q432.29-16.93 430.47-16.93L430.47-16.93Q428.09-16.93 426.90-14.90L426.90-14.90L426.90 0L421.25 0L421.25-21.13Z M443.75-10.49L443.75-10.72Q443.75-15.59 446.07-18.55Q448.38-21.52 452.31-21.52L452.31-21.52Q455.78-21.52 457.72-19.14L457.72-19.14L457.95-21.13L463.07-21.13L463.07-0.70Q463.07 2.07 461.81 4.12Q460.55 6.17 458.26 7.25Q455.98 8.32 452.91 8.32L452.91 8.32Q450.59 8.32 448.38 7.39Q446.18 6.46 445.04 5L445.04 5L447.54 1.56Q449.65 3.93 452.66 3.93L452.66 3.93Q454.91 3.93 456.16 2.72Q457.41 1.52 457.41-0.68L457.41-0.68L457.41-1.82Q455.45 0.39 452.27 0.39L452.27 0.39Q448.46 0.39 446.11-2.59Q443.75-5.57 443.75-10.49L443.75-10.49ZM449.40-10.31L449.40-10.31Q449.40-7.44 450.55-5.81Q451.70-4.18 453.71-4.18L453.71-4.18Q456.29-4.18 457.41-6.11L457.41-6.11L457.41-15Q456.27-16.93 453.75-16.93L453.75-16.93Q451.72-16.93 450.56-15.27Q449.40-13.61 449.40-10.31Z M496.92 0L491.21 0Q490.82-0.76 490.65-1.89L490.65-1.89Q488.60 0.39 485.31 0.39L485.31 0.39Q482.21 0.39 480.17-1.41Q478.13-3.20 478.13-5.94L478.13-5.94Q478.13-9.30 480.62-11.09Q483.11-12.89 487.81-12.91L487.81-12.91L490.41-12.91L490.41-14.12Q490.41-15.59 489.66-16.46Q488.91-17.34 487.29-17.34L487.29-17.34Q485.86-17.34 485.05-16.66Q484.24-15.98 484.24-14.79L484.24-14.79L478.60-14.79Q478.60-16.62 479.73-18.18Q480.86-19.75 482.93-20.63Q485.00-21.52 487.58-21.52L487.58-21.52Q491.49-21.52 493.78-19.56Q496.08-17.60 496.08-14.04L496.08-14.04L496.08-4.88Q496.10-1.88 496.92-0.33L496.92-0.33L496.92 0ZM486.54-3.93L486.54-3.93Q487.79-3.93 488.85-4.48Q489.90-5.04 490.41-5.98L490.41-5.98L490.41-9.61L488.30-9.61Q484.06-9.61 483.79-6.68L483.79-6.68L483.77-6.35Q483.77-5.29 484.51-4.61Q485.26-3.93 486.54-3.93Z M501.09-21.13L506.41-21.13L506.58-18.69Q508.85-21.52 512.66-21.52L512.66-21.52Q516.02-21.52 517.66-19.55Q519.30-17.58 519.34-13.65L519.34-13.65L519.34 0L513.69 0L513.69-13.52Q513.69-15.31 512.91-16.12Q512.13-16.93 510.31-16.93L510.31-16.93Q507.93-16.93 506.74-14.90L506.74-14.90L506.74 0L501.09 0L501.09-21.13Z M523.54-10.72L523.54-10.72Q523.54-15.66 525.75-18.59Q527.97-21.52 531.82-21.52L531.82-21.52Q534.90-21.52 536.91-19.22L536.91-19.22L536.91-30L542.58-30L542.58 0L537.48 0L537.21-2.25Q535.10 0.39 531.78 0.39L531.78 0.39Q528.05 0.39 525.79-2.55Q523.54-5.49 523.54-10.72ZM529.18-10.31L529.18-10.31Q529.18-7.34 530.21-5.76Q531.25-4.18 533.22-4.18L533.22-4.18Q535.84-4.18 536.91-6.39L536.91-6.39L536.91-14.73Q535.86-16.93 533.26-16.93L533.26-16.93Q529.18-16.93 529.18-10.31Z M575.35-9.47L581.21-9.47Q580.88-4.88 577.82-2.25Q574.76 0.39 569.76 0.39L569.76 0.39Q564.30 0.39 561.16-3.29Q558.03-6.97 558.03-13.40L558.03-13.40L558.03-15.14Q558.03-19.24 559.47-22.36Q560.92-25.49 563.60-27.16Q566.29-28.83 569.84-28.83L569.84-28.83Q574.76-28.83 577.77-26.19Q580.78-23.55 581.25-18.79L581.25-18.79L575.39-18.79Q575.17-21.54 573.86-22.78Q572.54-24.02 569.84-24.02L569.84-24.02Q566.91-24.02 565.46-21.92Q564.00-19.82 563.96-15.41L563.96-15.41L563.96-13.26Q563.96-8.65 565.36-6.52Q566.76-4.39 569.76-4.39L569.76-4.39Q572.48-4.39 573.82-5.63Q575.15-6.88 575.35-9.47L575.35-9.47Z M584.61-10.51L584.61-10.76Q584.61-13.91 585.82-16.37Q587.03-18.83 589.30-20.18Q591.58-21.52 594.59-21.52L594.59-21.52Q598.86-21.52 601.57-18.91Q604.28-16.29 604.59-11.80L604.59-11.80L604.63-10.35Q604.63-5.49 601.91-2.55Q599.20 0.39 594.63 0.39Q590.06 0.39 587.33-2.54Q584.61-5.47 584.61-10.51L584.61-10.51ZM590.25-10.35L590.25-10.35Q590.25-7.34 591.38-5.75Q592.52-4.16 594.63-4.16L594.63-4.16Q596.68-4.16 597.83-5.73Q598.98-7.30 598.98-10.76L598.98-10.76Q598.98-13.71 597.83-15.33Q596.68-16.95 594.59-16.95L594.59-16.95Q592.52-16.95 591.38-15.34Q590.25-13.73 590.25-10.35Z M608.79-21.13L614.10-21.13L614.27-18.69Q616.54-21.52 620.35-21.52L620.35-21.52Q623.71-21.52 625.35-19.55Q626.99-17.58 627.03-13.65L627.03-13.65L627.03 0L621.38 0L621.38-13.52Q621.38-15.31 620.60-16.12Q619.82-16.93 618.00-16.93L618.00-16.93Q615.62-16.93 614.43-14.90L614.43-14.90L614.43 0L608.79 0L608.79-21.13Z M643.55-5.84L643.55-5.84Q643.55-6.88 642.53-7.47Q641.50-8.07 639.23-8.54L639.23-8.54Q631.70-10.12 631.70-14.94L631.70-14.94Q631.70-17.75 634.03-19.64Q636.36-21.52 640.13-21.52L640.13-21.52Q644.16-21.52 646.57-19.63Q648.98-17.73 648.98-14.71L648.98-14.71L643.34-14.71Q643.34-15.92 642.55-16.71Q641.77-17.50 640.11-17.50L640.11-17.50Q638.69-17.50 637.91-16.86Q637.13-16.21 637.13-15.21L637.13-15.21Q637.13-14.28 638.01-13.70Q638.90-13.13 641.01-12.71Q643.12-12.29 644.57-11.76L644.57-11.76Q649.04-10.12 649.04-6.07L649.04-6.07Q649.04-3.18 646.56-1.40Q644.08 0.39 640.15 0.39L640.15 0.39Q637.50 0.39 635.44-0.56Q633.38-1.50 632.20-3.15Q631.03-4.80 631.03-6.72L631.03-6.72L636.38-6.72Q636.46-5.21 637.50-4.41Q638.53-3.61 640.27-3.61L640.27-3.61Q641.89-3.61 642.72-4.23Q643.55-4.84 643.55-5.84Z M666.28 0L666.13-2.15Q664.04 0.39 660.35 0.39L660.35 0.39Q656.95 0.39 655.16-1.56Q653.37-3.52 653.34-7.29L653.34-7.29L653.34-21.13L658.98-21.13L658.98-7.48Q658.98-4.18 661.99-4.18L661.99-4.18Q664.86-4.18 665.93-6.17L665.93-6.17L665.93-21.13L671.60-21.13L671.60 0L666.28 0Z M682.61-30L682.61 0L676.95 0L676.95-30L682.61-30Z M689.17-26.33L694.82-26.33L694.82-21.13L698.43-21.13L698.43-16.99L694.82-16.99L694.82-6.45Q694.82-5.27 695.27-4.77Q695.72-4.26 696.99-4.26L696.99-4.26Q697.92-4.26 698.65-4.39L698.65-4.39L698.65-0.12Q696.99 0.39 695.23 0.39L695.23 0.39Q689.29 0.39 689.17-5.61L689.17-5.61L689.17-16.99L686.09-16.99L686.09-21.13L689.17-21.13L689.17-26.33Z M708.33-21.13L708.33 0L702.67 0L702.67-21.13L708.33-21.13ZM702.34-26.60L702.34-26.60Q702.34-27.87 703.19-28.69Q704.04-29.51 705.50-29.51L705.50-29.51Q706.95-29.51 707.81-28.69Q708.66-27.87 708.66-26.60L708.66-26.60Q708.66-25.31 707.80-24.49Q706.93-23.67 705.50-23.67Q704.07-23.67 703.21-24.49Q702.34-25.31 702.34-26.60Z M713.66-21.13L718.98-21.13L719.15-18.69Q721.42-21.52 725.23-21.52L725.23-21.52Q728.59-21.52 730.23-19.55Q731.87-17.58 731.91-13.65L731.91-13.65L731.91 0L726.26 0L726.26-13.52Q726.26-15.31 725.48-16.12Q724.70-16.93 722.88-16.93L722.88-16.93Q720.50-16.93 719.31-14.90L719.31-14.90L719.31 0L713.66 0L713.66-21.13Z M736.16-10.49L736.16-10.72Q736.16-15.59 738.48-18.55Q740.79-21.52 744.72-21.52L744.72-21.52Q748.19-21.52 750.13-19.14L750.13-19.14L750.36-21.13L755.48-21.13L755.48-0.70Q755.48 2.07 754.22 4.12Q752.96 6.17 750.67 7.25Q748.39 8.32 745.32 8.32L745.32 8.32Q743.00 8.32 740.79 7.39Q738.59 6.46 737.45 5L737.45 5L739.95 1.56Q742.06 3.93 745.07 3.93L745.07 3.93Q747.32 3.93 748.57 2.72Q749.82 1.52 749.82-0.68L749.82-0.68L749.82-1.82Q747.86 0.39 744.68 0.39L744.68 0.39Q740.87 0.39 738.52-2.59Q736.16-5.57 736.16-10.49L736.16-10.49ZM741.81-10.31L741.81-10.31Q741.81-7.44 742.96-5.81Q744.11-4.18 746.12-4.18L746.12-4.18Q748.70-4.18 749.82-6.11L749.82-6.11L749.82-15Q748.68-16.93 746.16-16.93L746.16-16.93Q744.13-16.93 742.97-15.27Q741.81-13.61 741.81-10.31Z"/></g>
</svg>
</g><g opacity="1" transform="rotate(0 609.7766 392.7804)">
<svg width="310.4473" height="35.8079" x="609.7766" y="392.7804" version="1.1" preserveAspectRatio="none" viewBox="0.2 -25.44 220.56 25.44">
  <g transform="matrix(1 0 0 1 0 0)" class="companyName"><path id="id-D6z1nYkh13" d="M0.20-25.44L15.24-25.44L15.24-21.24L10.56-21.24L10.56 0L4.84 0L4.84-21.24L0.20-21.24L0.20-25.44Z M23.76-10.84L23.76-4.20L31.92-4.20L31.92 0L18.04 0L18.04-25.44L31.60-25.44L31.60-21.24L23.76-21.24L23.76-15.04L30.44-15.04L30.44-10.84L23.76-10.84Z M50.24-21.04L50.24-16.52L44.48-16.52L44.48-20.52Q44.48-21.52 43.44-21.52L43.44-21.52L41.80-21.52Q40.72-21.52 40.72-20.52L40.72-20.52L40.72-4.92Q40.72-4.36 40.96-4.14Q41.20-3.92 41.80-3.92L41.80-3.92L43.44-3.92Q44.00-3.92 44.24-4.14Q44.48-4.36 44.48-4.92L44.48-4.92L44.48-8.80L50.24-8.80L50.24-4.40Q50.24 0 45.16 0L45.16 0L40.04 0Q35.00 0 35.00-4.40L35.00-4.40L35.00-21.04Q35.00-25.44 40.04-25.44L40.04-25.44L45.16-25.44Q50.24-25.44 50.24-21.04L50.24-21.04Z M64.76-14.68L64.76-25.44L70.40-25.44L70.40 0L64.76 0L64.76-10.48L59.64-10.48L59.64 0L54.00 0L54.00-25.44L59.64-25.44L59.64-14.68L64.76-14.68Z M85.56-14.68L85.56-25.44L91.20-25.44L91.20 0L85.56 0L85.56-10.48L80.44-10.48L80.44 0L74.80 0L74.80-25.44L80.44-25.44L80.44-14.68L85.56-14.68Z M95.72 0L95.72-25.44L101.40-25.44L101.40 0L95.72 0Z M113.48-6.56L116.68-25.44L122.60-25.44L117.00 0L110.00 0L104.36-25.44L110.32-25.44L113.48-6.56Z M131.20-10.84L131.20-4.20L139.36-4.20L139.36 0L125.48 0L125.48-25.44L139.04-25.44L139.04-21.24L131.20-21.24L131.20-15.04L137.88-15.04L137.88-10.84L131.20-10.84Z M156.28-25.44L156.28-4.20L163.60-4.20L163.60 0L150.60 0L150.60-25.44L156.28-25.44Z M183.60 0L177.84 0L176.96-4.60L171.16-4.60L170.28 0L164.64 0L170.40-25.44L177.68-25.44L183.60 0ZM174.04-19.52L171.96-8.76L176.12-8.76L174.04-19.52Z M196.36-15.76L196.36-15.76L196.36-20.52Q196.36-21.52 195.28-21.52L195.28-21.52L192-21.52L192-14.76L195.28-14.76Q196.36-14.76 196.36-15.76ZM196.36-4.92L196.36-4.92L196.36-9.88Q196.36-10.40 196.12-10.62Q195.88-10.84 195.28-10.84L195.28-10.84L192-10.84L192-3.92L195.28-3.92Q196.36-3.92 196.36-4.92ZM186.36 0L186.36-25.44L196.92-25.44Q202-25.44 202-21.04L202-21.04L202-16.56Q202-13.60 200.20-12.84L200.20-12.84Q202-12.16 202-9.40L202-9.40L202-4.44Q202 0 196.92 0L196.92 0L186.36 0Z M215.04-5.20L215.04-5.20L215.04-9.80Q215.04-10.32 214.80-10.54Q214.56-10.76 213.96-10.76L213.96-10.76L210.44-10.76Q205.72-10.76 205.72-15.24L205.72-15.24L205.72-21.04Q205.72-25.44 210.76-25.44L210.76-25.44L215.64-25.44Q220.68-25.44 220.68-21.04L220.68-21.04L220.68-17.72L214.96-17.72L214.96-20.24Q214.96-21.24 213.88-21.24L213.88-21.24L212.52-21.24Q211.44-21.24 211.44-20.24L211.44-20.24L211.44-15.76Q211.44-15.24 211.68-15.02Q211.92-14.80 212.52-14.80L212.52-14.80L215.96-14.80Q218.52-14.80 219.64-13.70Q220.76-12.60 220.76-10.44L220.76-10.44L220.76-4.44Q220.76 0 215.72 0L215.72 0L210.88 0Q205.80 0 205.80-4.44L205.80-4.44L205.80-7.72L211.52-7.72L211.52-5.20Q211.52-4.20 212.60-4.20L212.60-4.20L213.96-4.20Q215.04-4.20 215.04-5.20Z"/></g>
</svg>
</g></svg>