<svg xmlns="http://www.w3.org/2000/svg" xmlns:xlink="http://www.w3.org/1999/xlink" preserveAspectRatio="none"
     viewBox="714.9 257.96 100.2 115.62">
    <style>.aIptOCySncolors-0 {fill:#161616;fill-opacity:1;}.aIptOCySncolors-1
        {fill:#46C211;fill-opacity:1;}.aIptOCySncolors-3 {fill:#000000;fill-opacity:1;}.aIptOCySncolors-4
        {fill:#161616;fill-opacity:1;}.aIptOCySncolors-5 {fill:#2F2E2E;fill-opacity:1;}.aIptOCySncolors-6
        {fill:#B4B4B4;fill-opacity:1;}.aIptOCySncolors-7 {fill:#808080;fill-opacity:1;}.atgh7KN1KN0filter-floo
        {flood-color:#A0A0A0;flood-opacity:0.5;}.companyName {fill:#F9F9F9;fill-opacity:1;}.icon3
        {fill:#6B6B6B;fill-opacity:1;}.icon3-str {stroke:#6B6B6B;stroke-opacity:1;}
    </style>
    <g opacity="1" transform="rotate(0 714.8978 257.9638)">
        <svg width="100.2044" height="115.6204" x="714.8978" y="257.9638" version="1.1" preserveAspectRatio="none"
             viewBox="35 25 130 150">
            <g transform="matrix(1 0 0 1 0 0)">
                <g>
                    <path d="M131.7 43.3L100 25 35 62.6v74.8l65 37.6 37.3-21.5 27.7-16.1V62.6l-33.3-19.3z"
                          data-color="1" class="aIptOCySncolors-0"></path>
                    <path opacity=".2" d="M35.2 62.4l-.2.2v31.9l65 37.4-64.8-69.5z" data-color="2"
                          class="aIptOCySncolors-1"></path>
                    <path d="M137.3 153.5l27.7-16.1V62.6l-65 69.3 37.3 21.6z" data-color="2"
                          class="aIptOCySncolors-1"></path>
                    <path opacity=".75" d="M100 131.9l65-69.3-33.3-19.3-31.7 88.6z" data-color="2"
                          class="aIptOCySncolors-1"></path>
                    <path opacity=".3" d="M100 131.9L67.9 43.5 35.2 62.4l64.8 69.5z" data-color="2"
                          class="aIptOCySncolors-1"></path>
                    <path opacity=".6" d="M100 131.9l31.7-88.6L100 25v106.9z" data-color="2"
                          class="aIptOCySncolors-1"></path>
                    <path opacity=".4" d="M100 25L68 43.5l32 88.4V25z" data-color="2" class="aIptOCySncolors-1"></path>
                </g>
            </g>
        </svg>
    </g>
</svg>